<svg xmlns="http://www.w3.org/2000/svg" width="580" height="200">
  <path fill="#11171A" d="M485.941 101.088c.932.534 1.799.867 2.599 1 .932.2 1.866.234 2.799.1-.734-.865-.734-2.232 0-4.099.733-1.865 1.7-3.732 2.9-5.599 1.4-2.2 3.099-4.532 5.099-6.999-.534-1.333-1.284-2.35-2.25-3.05-.967-.699-1.917-1.215-2.849-1.55a15.848 15.848 0 0 0-3.499-.8c-1.734 1.135-3.067 2.734-3.999 4.799a39.586 39.586 0 0 0-2.2 6.1c-.599 2.334-.967 4.799-1.099 7.398.731 1.268 1.564 2.167 2.499 2.7z"/>
  <path fill="#11171A" d="M571.525 131.883a4.593 4.593 0 0 0-1.099-.649c-.4-.166-.934-.216-1.599-.15-.4.599-.835 1.267-1.301 2a921.537 921.537 0 0 1-3.599 5.099 65.637 65.637 0 0 1-4.999 7.399c-1.867 2.4-3.867 4.533-5.999 6.399-2.134 1.867-4.349 3.349-6.649 4.448-2.299 1.1-4.583 1.617-6.849 1.551-.734-.333-1.4-.9-2-1.7-.534-.733-1-1.733-1.4-2.999-.399-1.265-.599-2.965-.599-5.1 0-.932.133-1.949.4-3.049.266-1.099.615-2.2 1.05-3.299a34.383 34.383 0 0 1 1.45-3.2 59.392 59.392 0 0 1 1.5-2.75c.133 1.667.865 3.2 2.199 4.6 1.333 1.399 3.533 2.099 6.599 2.099 2.465-1 4.699-2.365 6.699-4.099 1.665-1.466 3.199-3.316 4.599-5.55 1.4-2.232 2.099-4.948 2.099-8.148 0-2.065-.617-3.799-1.849-5.199-1.234-1.4-2.617-2.533-4.15-3.4-1.734-1-3.734-1.799-5.999-2.399-2.799.267-5.533 1.3-8.198 3.099-1.135.8-2.335 1.8-3.6 3-1.266 1.2-2.534 2.684-3.799 4.449-1.267 1.767-2.5 3.833-3.7 6.199a46.18 46.18 0 0 0-1.191 2.578 679.355 679.355 0 0 0-5.707 8.57 198.614 198.614 0 0 0-3.2 4.749 161.126 161.126 0 0 1-3.149 4.65 353.87 353.87 0 0 0-2.85 4.099c-.867 1.267-1.633 2.3-2.299 3.1.065-.533.283-1.833.65-3.9.365-2.065.949-4.715 1.75-7.949.8-3.232 1.915-6.931 3.349-11.098 1.432-4.165 3.249-8.631 5.449-13.398 2.2-4.765 4.832-9.731 7.898-14.897 3.066-5.165 6.699-10.349 10.899-15.547-1.067-1.8-2.2-3.366-3.4-4.699a18.809 18.809 0 0 0-3.549-2.95c-1.3-.833-2.716-1.115-4.249-.849a1219.356 1219.356 0 0 0-7.898 16.097 670.816 670.816 0 0 0-7.249 15.698 345.777 345.777 0 0 0-7.05 16.897c-.6 1.067-1.433 2.567-2.5 4.499a558.374 558.374 0 0 1-3.649 6.499 753.383 753.383 0 0 1-4.299 7.449c-1.5 2.567-2.95 5.033-4.35 7.399a178.309 178.309 0 0 1-3.95 6.398c-1.234 1.9-2.216 3.35-2.949 4.35.065-.534.365-2.085.899-4.65.533-2.565 1.333-5.832 2.4-9.798 1.065-3.965 2.45-8.464 4.149-13.498 1.7-5.032 3.783-10.298 6.249-15.797 2.465-5.499 5.315-11.081 8.549-16.747a128.294 128.294 0 0 1 11.048-16.297c-1-1.8-2.1-3.366-3.299-4.699a15.879 15.879 0 0 0-3.499-2.95c-1.335-.833-2.767-1.115-4.3-.849-6.065 12.465-11.432 24.163-16.097 35.094a891.196 891.196 0 0 0-5.897 14.092 342.2 342.2 0 0 1-5.401 8.204 346.965 346.965 0 0 1-5.898 8.449c-2.134 2.966-4.134 5.517-5.999 7.649.065-1.666.315-3.999.75-6.999.433-3 1.149-6.232 2.149-9.699 1-3.465 2.382-6.931 4.15-10.399 1.765-3.465 4.049-6.465 6.848-8.998a8.184 8.184 0 0 0-1.599-3c-.667-.732-1.617-1.432-2.85-2.099-1.234-.666-2.883-1-4.948-1-2.535 3.133-4.767 6.799-6.699 10.998-.894 1.856-1.738 3.942-2.534 6.25a43.797 43.797 0 0 1-2.365 2.749c-.934 1.067-2.034 2.133-3.299 3.2a24.128 24.128 0 0 1-3.9 2.699c-.134 0-.417-.133-.849-.399-.435-.266-.817-.716-1.15-1.35-.334-.633-.566-1.465-.699-2.5-.135-1.032.016-2.299.449-3.799.434-1.5 1.233-3.232 2.4-5.199 1.166-1.965 2.849-4.249 5.049-6.848-.334-1.133-.867-2.099-1.599-2.9-.667-.732-1.567-1.332-2.7-1.799-1.135-.466-2.634-.565-4.499-.3a482.943 482.943 0 0 1-7.299 11.198c-1 1.534-2.034 3.049-3.1 4.549a1954.5 1954.5 0 0 1-3.099 4.349c-1 1.4-1.966 2.668-2.9 3.8-.933 1.134-1.766 2.034-2.5 2.699 1.133-4.531 2.1-8.831 2.9-12.897.333-1.733.666-3.483 1-5.249a86.18 86.18 0 0 0 .8-4.999c.2-1.565.333-3.015.4-4.35.065-1.332.065-2.399 0-3.199-1.468-1.733-2.9-3.132-4.299-4.199-1.2-.932-2.434-1.6-3.7-2-1.267-.4-2.335-.065-3.2 1 .4 3.266.4 7.366 0 12.298-.301 3.79-.945 8.54-1.924 14.229l-6.774 8.467a439.764 439.764 0 0 1-6.898 8.548 485.96 485.96 0 0 1-6.1 7.249c.2-1.333.565-3.182 1.1-5.549.532-2.366 1.399-5.182 2.599-8.449 1.2-3.265 2.799-6.915 4.799-10.948 2-4.032 4.532-8.414 7.599-13.147a61.43 61.43 0 0 0-2.7-2.9 25.64 25.64 0 0 0-2.549-2.049c-.9-.633-1.785-.95-2.65-.95-2.267 1.667-4.934 3.9-7.999 6.699-2.599 2.399-5.767 5.566-9.498 9.498-3.734 3.934-7.999 8.832-12.798 14.698a426.025 426.025 0 0 1 7.299-19.197 843.571 843.571 0 0 1 3.349-8.249 207.932 207.932 0 0 1 3.65-8.349 447.645 447.645 0 0 1 3.749-7.898 106.934 106.934 0 0 1 3.65-6.899c.065-1.932-.168-3.7-.7-5.299-.534-1.333-1.384-2.549-2.549-3.65-1.168-1.099-2.984-1.649-5.449-1.649-3.666 7.398-7.166 15.198-10.498 23.396-1.4 3.535-2.85 7.334-4.35 11.398a349.281 349.281 0 0 0-4.399 12.698c-.322.987-.636 1.984-.948 2.985a62.373 62.373 0 0 1-2.001 2.314 44.345 44.345 0 0 1-3.949 4.049 38.967 38.967 0 0 1-4.65 3.65 176.291 176.291 0 0 1-1.45-4.949 62.084 62.084 0 0 0-1.25-4.049c-.867-2.733-1.549-5.065-2.049-6.999-.5-1.932-.9-3.582-1.2-4.949-.3-1.365-.484-2.45-.55-3.249-.067-.8-.1-1.432-.1-1.9.133 0 .332.035.599.101.2.067.4.117.6.149.2.035.466.117.801.25v.101l.1-.101c.732.335 1.466.934 2.2 1.8.732.867 1.333 2.167 1.799 3.899.666-1 1.333-2.065 2-3.2a36.934 36.934 0 0 0 1.55-3.049c.5-1.099.85-2.182 1.05-3.249a19.79 19.79 0 0 0-2.5-2.799c-.8-.732-1.766-1.482-2.899-2.25a15.547 15.547 0 0 0-3.799-1.849c-.135-.066-.234-.101-.301-.101s-.134-.032-.199-.1a12.875 12.875 0 0 0-1.75-.3 9.626 9.626 0 0 0-1.95 0c-1.534.199-3.034.949-4.499 2.25-1.468 1.3-2.6 3.649-3.4 7.049v.3c-.067-.065-.134-.1-.2-.1a86.022 86.022 0 0 1-3.599 9.098c-1.334 2.867-2.567 5.366-3.7 7.499a86.637 86.637 0 0 1-.942 1.785 226.92 226.92 0 0 1-4.556 6.914 226.893 226.893 0 0 1-2.899 4.049c-1 1.367-1.967 2.634-2.9 3.799-.934 1.167-1.849 2.184-2.75 3.049-.899.867-1.684 1.5-2.349 1.9 1.665-3.4 3.099-6.564 4.299-9.498a90.056 90.056 0 0 0 1.5-3.799 38.155 38.155 0 0 0 1.15-3.65c.3-1.165.516-2.215.649-3.149.133-.933.133-1.666 0-2.2-.334-1.133-.849-2-1.55-2.6a9.137 9.137 0 0 0-2.15-1.399c-.8-.333-1.699-.6-2.699-.8-2.734 4.734-5.499 9.098-8.299 13.097a106.658 106.658 0 0 1-3.799 5.15 126.517 126.517 0 0 1-3.999 4.849c-1.334 1.534-2.667 2.884-3.999 4.049-1.334 1.167-2.599 2.049-3.799 2.65-.067-4.199.599-8.365 2-12.498.599-1.8 1.4-3.665 2.4-5.6 1-1.932 2.265-3.899 3.799-5.898 1.532-2 3.365-3.965 5.499-5.899 2.133-1.932 4.632-3.765 7.499-5.499 1.2-.665 2.2-.932 3-.8.8.135 1.5.45 2.099.95.6.5 1.15 1.099 1.65 1.799s1.015 1.25 1.549 1.65c.6-2.2.666-4.165.2-5.899-.4-1.466-1.367-2.815-2.9-4.049-1.534-1.233-4.099-1.85-7.699-1.85-1.199 0-2.699.367-4.499 1.1-1.799.734-3.699 1.849-5.698 3.349-2 1.5-4.035 3.367-6.1 5.6-2.067 2.234-3.966 4.883-5.699 7.948-.24.424-.462.874-.692 1.313-4.904 7.033-9.245 12.956-13.005 17.735-4.067 5.166-7.466 9.348-10.198 12.548a141.294 141.294 0 0 1 4.049-15.047c1.633-4.965 3.4-9.815 5.299-14.548 1.9-4.732 3.9-9.264 5.999-13.597a415.09 415.09 0 0 1 6.149-12.198c4.732-8.864 9.764-17.23 15.097-25.095-.933-1.799-2-3.265-3.199-4.4-1.2-1.133-2.335-2.065-3.4-2.799a21.094 21.094 0 0 0-3.7-1.799c-2 1.467-4.317 3.434-6.949 5.898-2.633 2.467-5.416 5.249-8.348 8.349a457.988 457.988 0 0 0-8.999 9.798 792.14 792.14 0 0 0-8.998 10.248c-6.866 7.933-13.964 16.464-21.296 25.595.266-.532.733-1.715 1.4-3.549.665-1.833 1.466-4.032 2.399-6.599.933-2.565 1.9-5.399 2.9-8.499 1-3.1 1.965-6.215 2.899-9.349a262.473 262.473 0 0 0 2.5-8.948c.733-2.833 1.265-5.315 1.6-7.449.465-3.132.2-5.582-.8-7.349-1-1.765-2.199-3.115-3.6-4.049-1.667-1-3.634-1.633-5.899-1.899-6.466 2.066-12.098 4.316-16.897 6.749-4.799 2.433-8.966 4.948-12.498 7.549-3.534 2.599-6.466 5.216-8.798 7.848-2.334 2.634-4.217 5.134-5.649 7.499-1.434 2.367-2.5 4.549-3.199 6.549-.7 2-1.184 3.667-1.45 4.999-.4 2-.065 3.867 1 5.6a19.094 19.094 0 0 0 3.8 4.499c1.732 1.534 3.699 2.899 5.899 4.099.465-3.465 1.35-6.749 2.649-9.848a51.7 51.7 0 0 1 4.649-8.699c1.8-2.7 3.765-5.215 5.899-7.549 2.132-2.333 4.265-4.432 6.399-6.299 5.065-4.4 10.631-8.264 16.697-11.599-2.667 10.199-5.533 19.697-8.599 28.495-3.066 8.798-5.949 16.547-8.648 23.246-2.699 6.699-5.033 12.216-6.999 16.547-1.967 4.334-3.184 7.167-3.649 8.499-.534 1.333-.417 2.533.35 3.6.766 1.065 1.682 2 2.75 2.799 1.199.932 2.699 1.765 4.499 2.5a161.835 161.835 0 0 1 7.899-13.097 262.72 262.72 0 0 1 9.248-12.998 287.63 287.63 0 0 1 9.898-12.349 476.96 476.96 0 0 1 9.748-11.148 507.933 507.933 0 0 1 22.796-23.496c-4.467 7.799-8.216 14.732-11.248 20.796-3.034 6.066-5.517 11.433-7.449 16.097-1.934 4.666-3.416 8.749-4.449 12.248-1.034 3.499-1.767 6.584-2.199 9.248-.435 2.667-.7 5.017-.8 7.049a512.89 512.89 0 0 0-.25 5.649c-.067 1.4.05 2.599.35 3.599s.716 1.866 1.25 2.6a7.68 7.68 0 0 0 1.8 1.799 8.983 8.983 0 0 0 2.099 1.099c1.666.666 3.565.966 5.699.9 1.6-1.667 3.249-3.65 4.949-5.949a174.375 174.375 0 0 0 5.099-7.299c1.7-2.567 3.382-5.199 5.049-7.899a235.574 235.574 0 0 0 4.665-7.888 64.755 64.755 0 0 0-.265 2.74c.467 1.667 1.199 3.133 2.199 4.399.867 1.135 2.067 2.15 3.6 3.05 1.532.899 3.532 1.349 5.999 1.349.865-.533 1.865-1.333 2.999-2.4.932-.932 2.083-2.115 3.45-3.549 1.365-1.432 2.915-3.315 4.649-5.648-.334 1.134-.484 2.234-.45 3.299.033 1.067.316 2.099.85 3.099 1.065 1 2.165 1.867 3.299 2.6.932.667 1.95 1.266 3.049 1.799 1.1.534 2.116.8 3.049.8a564.07 564.07 0 0 0 7.8-10.998 3547.18 3547.18 0 0 1 6.799-9.949c.54-.788 1.058-1.555 1.564-2.31a73.694 73.694 0 0 0 4.184-5.139c1.765-2.399 3.315-4.732 4.649-6.999.266.867.682 2.05 1.25 3.55.565 1.5 1.15 3.083 1.75 4.749.6 1.667 1.2 3.316 1.799 4.948.601 1.635 1.1 3.017 1.5 4.15h-.1c.065 0 .133.034.2.1.065.2.133.385.2.551.065.167.133.35.199.55-3.066-.333-5.933-.833-8.598-1.5a392.536 392.536 0 0 0-7.499-1.799c-.4.134-.8.434-1.2.899-.399.468-.8.968-1.2 1.5a76.092 76.092 0 0 0-2.199 3.1c1.134 3.599 2.734 6.799 4.799 9.598a28.446 28.446 0 0 0 3 3.499 21.677 21.677 0 0 0 3.849 3.049c1.432.9 3.033 1.616 4.799 2.15 1.765.532 3.715.8 5.85.8 2.465 0 4.465-.467 5.999-1.4 1.532-.933 2.7-1.984 3.499-3.149.8-1.166 1.315-2.299 1.55-3.4.232-1.099.283-1.849.15-2.25a19.297 19.297 0 0 0-.6-2.2c-.2-.732-.417-1.55-.649-2.449-.234-.9-.518-1.916-.85-3.05 1.713-1.181 3.572-2.889 5.574-5.119a227.672 227.672 0 0 0-3.076 13.419c.134 1.066.567 2.034 1.3 2.899.6.734 1.55 1.434 2.849 2.1 1.301.665 3.15 1.065 5.55 1.199.532-1.332 1.665-3.265 3.399-5.799 1.466-2.132 3.6-5.049 6.399-8.749s6.599-8.381 11.398-14.047a528.827 528.827 0 0 0-3.299 9.598c-.934 2.8-1.834 5.749-2.7 8.849-.867 3.099-1.467 6.016-1.799 8.749.2.932.7 1.865 1.5 2.799.733.8 1.765 1.682 3.1 2.65 1.332.965 3.232 1.915 5.698 2.849 1.265-.667 3.066-2.434 5.399-5.299 1-1.2 2.166-2.733 3.499-4.6a284.872 284.872 0 0 0 4.65-6.749 303.39 303.39 0 0 0 5.773-8.996 289.665 289.665 0 0 1-3.524 12.846 7.868 7.868 0 0 0 1.5 3.099c.599.8 1.449 1.534 2.549 2.2 1.099.666 2.549 1.033 4.349 1.099.2-.933.433-1.765.7-2.5.2-.665.45-1.332.75-2 .3-.665.615-1.165.95-1.5l1 .301c1.265-2.2 2.632-4.499 4.099-6.899 1.265-2.065 2.7-4.4 4.299-6.999 1.6-2.599 3.3-5.232 5.1-7.899-.2 1.2-.135 2.4.2 3.6 1.732 2.466 3.699 4.133 5.898 4.999.932.399 1.95.634 3.049.7 1.1.066 2.25-.116 3.45-.551 1.2-.433 2.483-1.199 3.85-2.299a17.003 17.003 0 0 0 1.759-1.672c-.935 4.617-1.411 9.785-1.411 15.52.2.534.467 1.066.8 1.599.335.467.718.984 1.15 1.55.434.567 1.016 1.117 1.75 1.65.865.8 1.732 1.75 2.599 2.849.866 1.1 1.765 1.65 2.7 1.65a366.52 366.52 0 0 0 6.099-9.498 3272.13 3272.13 0 0 0 4.636-7.217c-.9 2.747-1.669 5.313-2.286 7.668-.899 3.433-1.349 6.182-1.349 8.249 0 1.732.5 3.365 1.5 4.899.867 1.333 2.267 2.666 4.199 3.999 1.934 1.333 4.832 2.366 8.699 3.1 1.332-3.867 2.665-7.667 3.999-11.398 1.133-3.2 2.415-6.599 3.849-10.199 1.432-3.599 2.882-6.764 4.349-9.498-1 3.6-1.5 6.634-1.5 9.099-.066 1.799.4 3.466 1.4 4.999.865 1.334 2.283 2.649 4.249 3.949 1.965 1.301 4.849 2.316 8.649 3.05a103.718 103.718 0 0 1 2.599-7.099 249.928 249.928 0 0 1 3.049-7.148 116.786 116.786 0 0 1 3.207-6.635 21.596 21.596 0 0 0-.158 2.936c.067 2.966.584 5.449 1.55 7.449.968 2 2.2 3.599 3.7 4.799 1.5 1.2 3.015 2.115 4.549 2.75 1.533.633 2.916 1.05 4.15 1.25 1.232.2 2.015.3 2.349.3.266 0 .682-.034 1.25-.1.565-.067 1.3-.25 2.2-.551.9-.3 1.95-.784 3.15-1.449 1.199-.668 2.565-1.6 4.099-2.8.466-.399.783-.649.95-.75.165-.1.315-.199.45-.3.133-.1.315-.25.55-.45.232-.199.683-.665 1.349-1.399 1.065-1.2 2.233-2.715 3.499-4.549 1.265-1.833 2.6-3.882 3.999-6.149 1.4-2.265 2.866-4.65 4.4-7.149 1.532-2.5 3.099-5.015 4.699-7.549a6.509 6.509 0 0 0-.801-1.005zm-29.194.4c1.932-2.799 3.849-5.015 5.749-6.649 1.899-1.633 3.615-2.45 5.149-2.45-.734 2.067-1.567 3.967-2.5 5.699-.8 1.534-1.784 3-2.95 4.4-1.167 1.399-2.449 2.399-3.849 3a7.044 7.044 0 0 1-.9-1.1 10.04 10.04 0 0 1-.599-1.199c-.201-.467-.235-1.034-.1-1.701zm-182.966 23.946c-.2.367-.6.667-1.2.899-.6.234-1.467.518-2.599.85-.801.199-1.7.1-2.7-.301-1-.399-2-.982-3-1.75-1-.766-1.934-1.615-2.799-2.549-.867-.932-1.535-1.865-2-2.799.865.135 1.883.234 3.049.3 1.165.067 2.382.15 3.649.25 1.265.101 2.515.218 3.749.351 1.233.134 2.316.334 3.249.599.333 1.135.566 2.017.7 2.65.135.634.102 1.134-.098 1.5z"/>
  <path fill="#26313C" d="M115.698 134.378c.76-.937.878-2.429.878-5.589 0-3.159-.117-4.476-.878-5.412-.702-.849-1.638-1.287-3.043-1.287h-3.072v13.575h3.072c1.405-.001 2.341-.439 3.043-1.287zM125.028 102.9c.406 0 .78-.163 1.041-.423.406-.39.65-1.056.862-2.114.146-.764.179-1.122.179-1.317 0-.813-.439-1.203-1.057-1.203-.406 0-.797.163-1.057.423-.406.39-.65 1.041-.862 2.097-.146.764-.179 1.138-.179 1.334 0 .813.455 1.203 1.073 1.203zM131.792 121.914c-1.112 0-2.048.438-2.633 1.111-.79.878-.995 1.843-.995 5.852 0 4.008.205 4.974.995 5.852.585.673 1.521 1.112 2.633 1.112s2.019-.439 2.604-1.112c.79-.878 1.024-1.843 1.024-5.852 0-4.008-.234-4.974-1.024-5.852-.585-.673-1.492-1.111-2.604-1.111zM85.413 99.528c0-3.159-.117-4.476-.878-5.412-.702-.849-1.638-1.287-3.043-1.287H78.42v13.575h3.072c1.405 0 2.341-.438 3.043-1.287.761-.937.878-2.429.878-5.589zM62.502 106.579c1.112 0 2.019-.439 2.604-1.112.79-.878 1.024-1.843 1.024-5.852 0-4.008-.234-4.974-1.024-5.852-.585-.673-1.492-1.111-2.604-1.111s-2.048.438-2.633 1.111c-.79.878-.995 1.843-.995 5.852 0 4.008.205 4.974.995 5.852.585.673 1.522 1.112 2.633 1.112z"/>
  <path fill="#26313C" d="M22.738 168.729h154.408a4.877 4.877 0 0 0 4.877-4.877V69.517c0-5.387-4.367-9.754-9.754-9.754H27.615c-5.387 0-9.754 4.367-9.754 9.754v94.335a4.876 4.876 0 0 0 4.877 4.877zm38.156-29.436h-4.067v-20.831h4.067v20.831zm20.802 0h-3.628l-8.25-12.786v12.786h-4.067v-20.831h3.628l8.25 12.756v-12.756h4.067v20.831zm80.819 0h-4.067V127.15l-3.979 7.899h-2.75l-4.008-7.899v12.142h-4.067v-20.831h4.008l5.442 11.264 5.413-11.264h4.008v20.832zm-3.008-43.255c1.805 0 3.008 1.187 3.008 3.025 0 .569-.114 1.252-.26 1.919h-5.073c-.033.228-.065.39-.065.602 0 .829.455 1.414 1.447 1.414.813 0 1.431-.309 2.017-.862l1.056 1.334c-.878.829-2.032 1.236-3.3 1.236-1.48 0-3.138-.749-3.138-2.976-.001-2.846 1.397-5.692 4.308-5.692zm-11.153-3.007h2.016l-.748 3.772c.537-.487 1.235-.764 2.081-.764 1.024 0 2.211.651 2.211 2.342 0 .341-.065.667-.114.943l-1.057 5.285h-2.017l1.024-5.155c.033-.179.065-.39.065-.552 0-.732-.488-1.057-.992-1.057-.569 0-1.48.293-1.74 1.626l-1.024 5.138h-2.017l2.312-11.578zm-7.12 4.894l.309-1.561h.862l.504-2.504h2.016l-.504 2.504h1.398l-.309 1.561h-1.398l-.829 4.162c-.033.13-.033.227-.033.309 0 .341.212.52.65.52h.732l-.342 1.691h-1.041c-1.17 0-2.049-.683-2.049-1.838 0-.293.033-.52.065-.699l.829-4.146h-.86zm-3.825 39.261c-1.463 1.463-3.247 2.282-5.617 2.282s-4.184-.819-5.646-2.282c-2.107-2.107-2.048-4.71-2.048-8.309 0-3.599-.058-6.202 2.048-8.309 1.463-1.463 3.277-2.282 5.646-2.282 2.37 0 4.155.819 5.617 2.282 2.107 2.107 2.077 4.71 2.077 8.309.001 3.599.03 6.202-2.077 8.309zm-5.717-41.05h1.951l-.179.829c.471-.569 1.268-.927 2.146-.927.813 0 1.349.26 1.805.797l-1.74 1.545c-.146-.179-.407-.52-.927-.52-.797 0-1.512.65-1.707 1.626l-1.024 5.122H130l1.692-8.472zm-5.445-.098c1.284 0 2.861.732 2.861 2.797 0 .52-.098 1.138-.163 1.528-.325 1.74-.764 2.65-1.512 3.366-.634.618-1.545.976-2.602.976-1.284 0-2.878-.749-2.878-2.813 0-.521.114-1.138.179-1.529.325-1.74.764-2.634 1.513-3.349.635-.618 1.546-.976 2.602-.976zm-9.105 1.903l.309-1.545h.829l.244-1.171c.293-1.48 1.203-2.325 2.764-2.325h1.187l-.342 1.707h-.715c-.488 0-.813.26-.927.829l-.195.959h1.496l-.309 1.545h-1.496l-1.334 6.667h-2.016l1.333-6.667h-.828zm1.394 22.51c2.34 2.34 2.106 5.208 2.106 8.338 0 3.131.234 6.174-2.106 8.515-1.375 1.375-3.335 1.989-5.501 1.989h-7.519v-20.831h7.519c2.166-.001 4.126.614 5.501 1.989zM93.637 89.2h13.722v3.628h-9.655v4.886h8.221v3.628h-8.221v5.061h9.655v3.628H93.637V89.2zm7.723 35.756h-4.096c-.468-1.961-1.668-3.042-3.745-3.042-1.112 0-2.019.438-2.604 1.111-.79.878-.995 1.843-.995 5.852 0 4.008.205 5.003.995 5.881.585.673 1.492 1.083 2.604 1.083 1.229 0 2.223-.439 2.896-1.171.673-.76.936-1.697.936-2.779v-.791h-3.833v-3.393h7.87v3.042c0 3.014-.527 4.828-1.99 6.349-1.668 1.726-3.657 2.369-5.881 2.369-2.282 0-4.155-.819-5.617-2.282-2.107-2.107-2.048-4.71-2.048-8.309 0-3.599-.058-6.202 2.048-8.309 1.463-1.463 3.277-2.282 5.617-2.282 4.829.001 7.287 3.161 7.843 6.671zM74.354 89.2h7.519c2.165 0 4.126.614 5.5 1.99 2.341 2.34 2.107 5.208 2.107 8.338 0 3.131.234 6.174-2.107 8.515-1.375 1.375-3.335 1.989-5.5 1.989h-7.519V89.2zm-17.498 2.107c1.463-1.463 3.277-2.282 5.646-2.282 2.37 0 4.155.819 5.617 2.282 2.107 2.107 2.077 4.71 2.077 8.309 0 3.599.029 6.202-2.077 8.309-1.463 1.463-3.247 2.282-5.617 2.282s-4.183-.819-5.646-2.282c-2.107-2.107-2.048-4.71-2.048-8.309 0-3.599-.059-6.203 2.048-8.309zm-2.635 47.986h-4.74l-5.354-9.479-2.692 3.218v6.261h-4.067v-20.831h4.067v9.07l7.343-9.07h4.944l-6.905 8.28 7.404 12.551zM38.714 91.307c1.463-1.463 3.335-2.282 5.617-2.282 3.891 0 6.934 2.223 7.665 6.583h-4.125c-.41-1.668-1.463-2.954-3.511-2.954-1.112 0-2.019.41-2.604 1.082-.79.878-1.024 1.872-1.024 5.881 0 4.008.234 5.003 1.024 5.881.585.673 1.492 1.083 2.604 1.083 2.048 0 3.102-1.287 3.511-2.955h4.125c-.731 4.359-3.803 6.583-7.665 6.583-2.282 0-4.155-.819-5.617-2.282-2.107-2.107-2.048-4.71-2.048-8.309 0-3.601-.058-6.205 2.048-8.311z"/>
  <path fill="#26313C" d="M160.596 99.063c0-.879-.471-1.366-1.203-1.366-.862 0-1.577.569-1.951 1.935h3.106c.032-.179.048-.39.048-.569zM191.657 188.059l-8.187-12.281a4.876 4.876 0 0 0-4.058-2.172H20.471a4.877 4.877 0 0 0-4.058 2.172l-8.187 12.281c-1.44 2.161.108 5.055 2.705 5.055h178.021c2.597-.001 4.146-2.895 2.705-5.055z"/>
  <g>
    <path fill="#F7E60E" d="M68.199 53.387l-4.095-18.835 14.678 5.664 21.159-21.105 21.16 21.105 14.678-5.664-4.094 18.835z"/>
    <path fill="#ECD319" d="M99.941 21.229l19.41 19.36 1.38 1.377 1.819-.702 11.172-4.311-3.246 14.933H69.407l-3.246-14.933 11.172 4.311 1.819.702 1.38-1.377 19.409-19.36m0-4.237L78.413 38.466 62.047 32.15l4.943 22.737h65.904l4.943-22.737-16.366 6.316-21.53-21.474z"/>
    <circle cx="99.941" cy="10.045" r="3.158" fill="#ECD319"/>
    <circle cx="59.52" cy="27.097" r="2.526" fill="#ECD319"/>
    <g>
      <circle cx="140.363" cy="27.097" r="2.526" fill="#ECD319"/>
    </g>
  </g>
</svg>